<svg version="1.1" viewBox="0.0 0.0 281.8005249343832 331.49343832021" fill="none" stroke="none" stroke-linecap="square" stroke-miterlimit="10" xmlns:xlink="http://www.w3.org/1999/xlink" xmlns="http://www.w3.org/2000/svg"><clipPath id="p.0"><path d="m0 0l281.80054 0l0 331.49344l-281.80054 0l0 -331.49344z" clip-rule="nonzero"/></clipPath><g clip-path="url(#p.0)"><path fill="#000000" fill-opacity="0.0" d="m0 0l281.80054 0l0 331.49344l-281.80054 0z" fill-rule="evenodd"/><path fill="#b4a7d6" d="m28.16273 62.816273l0 0c0 -30.014717 18.959154 -54.34646 42.34646 -54.34646l0 0c11.23098 0 22.001968 5.725771 29.943466 15.917709c7.9415054 10.191938 12.402992 24.01517 12.402992 38.42875l0 0c0 30.01472 -18.959152 54.346455 -42.34646 54.346455l0 0c-23.387302 0 -42.34646 -24.331734 -42.34646 -54.346455z" fill-rule="evenodd"/><path stroke="#000000" stroke-width="1.0" stroke-linejoin="round" stroke-linecap="butt" d="m28.16273 62.816273l0 0c0 -30.014717 18.959154 -54.34646 42.34646 -54.34646l0 0c11.23098 0 22.001968 5.725771 29.943466 15.917709c7.9415054 10.191938 12.402992 24.01517 12.402992 38.42875l0 0c0 30.01472 -18.959152 54.346455 -42.34646 54.346455l0 0c-23.387302 0 -42.34646 -24.331734 -42.34646 -54.346455z" fill-rule="evenodd"/><path fill="#b4a7d6" d="m61.733578 111.595764c-5.4116364 3.764656 0.9426918 17.646988 -4.233597 24.0c-5.1762924 6.3530273 -18.588802 -4.705597 -26.824146 14.118118c-8.235346 18.8237 -21.4112 77.883194 -22.587927 98.82414c-1.1767282 20.940948 10.115923 22.82196 15.527559 26.821533c5.4116344 3.9995422 13.883202 -8.471588 16.942257 -2.8241577c3.0590553 5.6474304 -13.1762905 30.119873 1.4120712 36.70865c14.588367 6.588806 73.17717 26.824585 86.11811 2.8241577c12.9409485 -24.000427 -3.0603638 -117.88539 -8.472443 -146.82677c-5.412071 -28.941391 -19.059052 -18.115921 -24.0 -26.821533c-4.940941 -8.705597 0.0013122559 -20.941376 -5.645668 -25.412064c-5.6469803 -4.4706955 -22.824585 -5.1767273 -28.236217 -1.4120789z" fill-rule="evenodd"/><path stroke="#000000" stroke-width="1.0" stroke-linejoin="round" stroke-linecap="butt" d="m61.733578 111.595764c-5.4116364 3.764656 0.9426918 17.646988 -4.233597 24.0c-5.1762924 6.3530273 -18.588802 -4.705597 -26.824146 14.118118c-8.235346 18.8237 -21.4112 77.883194 -22.587927 98.82414c-1.1767282 20.940948 10.115923 22.82196 15.527559 26.821533c5.4116344 3.9995422 13.883202 -8.471588 16.942257 -2.8241577c3.0590553 5.6474304 -13.1762905 30.119873 1.4120712 36.70865c14.588367 6.588806 73.17717 26.824585 86.11811 2.8241577c12.9409485 -24.000427 -3.0603638 -117.88539 -8.472443 -146.82677c-5.412071 -28.941391 -19.059052 -18.115921 -24.0 -26.821533c-4.940941 -8.705597 0.0013122559 -20.941376 -5.645668 -25.412064c-5.6469803 -4.4706955 -22.824585 -5.1767273 -28.236217 -1.4120789z" fill-rule="evenodd"/><path fill="#f9cb9c" d="m254.81886 62.34646l0 0c0 -30.01472 -18.959152 -54.34646 -42.346466 -54.34646l0 0c-11.230972 0 -22.001953 5.725771 -29.943466 15.917709c-7.941498 10.1919365 -12.402985 24.015171 -12.402985 38.42875l0 0c0 30.014717 18.959152 54.34646 42.34645 54.34646l0 0c23.387314 0 42.346466 -24.331741 42.346466 -54.34646z" fill-rule="evenodd"/><path stroke="#000000" stroke-width="1.0" stroke-linejoin="round" stroke-linecap="butt" d="m254.81886 62.34646l0 0c0 -30.01472 -18.959152 -54.34646 -42.346466 -54.34646l0 0c-11.230972 0 -22.001953 5.725771 -29.943466 15.917709c-7.941498 10.1919365 -12.402985 24.015171 -12.402985 38.42875l0 0c0 30.014717 18.959152 54.34646 42.34645 54.34646l0 0c23.387314 0 42.346466 -24.331741 42.346466 -54.34646z" fill-rule="evenodd"/><path fill="#f9cb9c" d="m221.24802 111.12595c5.4116364 3.7646484 -0.94270325 17.64698 4.233597 23.999992c5.176285 6.3530273 18.58879 -4.705597 26.824142 14.118118c8.235352 18.8237 21.411194 77.883194 22.587921 98.82414c1.1767273 20.940948 -10.115906 22.82196 -15.527557 26.821533c-5.4116364 3.9995422 -13.883194 -8.471588 -16.94226 -2.8241577c-3.0590515 5.6474304 13.1763 30.119873 -1.4120636 36.70865c-14.588364 6.588806 -73.17717 26.824585 -86.11812 2.8241577c-12.940933 -24.000427 3.060379 -117.88539 8.472443 -146.82677c5.412079 -28.941391 19.059052 -18.115921 24.0 -26.821518c4.9409485 -8.705612 -0.0013122559 -20.941391 5.6456757 -25.412079c5.6469727 -4.470688 22.824585 -5.1767273 28.236221 -1.4120712z" fill-rule="evenodd"/><path stroke="#000000" stroke-width="1.0" stroke-linejoin="round" stroke-linecap="butt" d="m221.24802 111.12595c5.4116364 3.7646484 -0.94270325 17.64698 4.233597 23.999992c5.176285 6.3530273 18.58879 -4.705597 26.824142 14.118118c8.235352 18.8237 21.411194 77.883194 22.587921 98.82414c1.1767273 20.940948 -10.115906 22.82196 -15.527557 26.821533c-5.4116364 3.9995422 -13.883194 -8.471588 -16.94226 -2.8241577c-3.0590515 5.6474304 13.1763 30.119873 -1.4120636 36.70865c-14.588364 6.588806 -73.17717 26.824585 -86.11812 2.8241577c-12.940933 -24.000427 3.060379 -117.88539 8.472443 -146.82677c5.412079 -28.941391 19.059052 -18.115921 24.0 -26.821518c4.9409485 -8.705612 -0.0013122559 -20.941391 5.6456757 -25.412079c5.6469727 -4.470688 22.824585 -5.1767273 28.236221 -1.4120712z" fill-rule="evenodd"/></g></svg>